Coordinates
version=1
nRows=17
nColumns=24
inDegrees=yes

Units are S.I. units (second, meters, Newtons, ...)
Angles are in degrees.

endheader
time	pelvis_tilt	pelvis_list	pelvis_rotation	pelvis_tx	pelvis_ty	pelvis_tz	hip_flexion_r	hip_adduction_r	hip_rotation_r	knee_angle_r	ankle_angle_r	subtalar_angle_r	mtp_angle_r	hip_flexion_l	hip_adduction_l	hip_rotation_l	knee_angle_l	ankle_angle_l	subtalar_angle_l	mtp_angle_l	lumbar_extension	lumbar_bending	lumbar_rotation
      3.84000000	     -8.86528429	    -10.12268714	      2.44015917	     -1.32447113	     -0.02825745	     -0.31766432	     17.89200282	     14.37072280	      0.42669537	    -22.54812687	      6.07906615	     -2.14222273	     10.20418267	     28.88666667	    -14.55609322	     -2.69305448	    -64.77982653	     -0.96096711	      3.42552870	      0.81151070	      9.22177865	      7.35049533	     -8.53342689
      3.84500000	     -8.84596587	     -9.79648722	      2.44831166	     -1.31833542	     -0.02706172	     -0.31751022	     17.06828019	     14.10455268	      0.72099074	    -21.97130511	      6.13927169	     -2.26338935	      9.96736746	     29.56752636	    -14.11486345	     -2.90305230	    -63.91172749	     -0.33419930	      3.65352633	      0.87995184	      9.16781323	      7.03273433	     -8.40030985
      3.85000000	     -8.68149448	     -9.47995033	      2.36926194	     -1.31216300	     -0.02567028	     -0.31716186	     16.03332972	     13.90251377	      1.21970216	    -21.31708976	      6.08292671	     -2.45870074	      9.53501413	     30.00713102	    -13.75939496	     -3.21995578	    -62.92833881	      0.28984035	      3.94045799	      0.77976994	      8.93958226	      6.72707063	     -8.11369079
      3.85500000	     -8.55866977	     -9.22180648	      2.34503791	     -1.30602363	     -0.02449632	     -0.31698092	     15.05616251	     13.72538137	      1.67964907	    -20.66550120	      6.11132922	     -2.62232586	      9.10834798	     30.51386212	    -13.41633174	     -3.46653620	    -61.91666314	      0.94829523	      4.16756484	      0.53529199	      8.77118291	      6.49397466	     -7.92152897
      3.86000000	     -8.51984630	     -8.94195410	      2.31653484	     -1.29991947	     -0.02343874	     -0.31681768	     14.21864127	     13.49017425	      1.92912849	    -20.07713121	      6.09237231	     -2.69946930	      8.83850158	     31.07655205	    -13.03798098	     -3.71533108	    -60.80723759	      1.52751585	      4.39244657	      0.34338898	      8.69329221	      6.22739099	     -7.74563241
      3.86500000	     -8.41074343	     -8.71055984	      2.28629036	     -1.29381253	     -0.02242503	     -0.31672303	     13.27699987	     13.31051573	      2.32221892	    -19.44149436	      6.09338716	     -2.79488679	      8.54361530	     31.54207539	    -12.70643550	     -3.95471463	    -59.64810119	      2.14521113	      4.55866312	     -0.05147244	      8.54034833	      6.03306160	     -7.54783367
      3.87000000	     -8.37507249	     -8.46955115	      2.25905390	     -1.28772268	     -0.02152946	     -0.31662777	     12.45846347	     13.09812340	      2.53694411	    -18.86233690	      6.04835751	     -2.86843702	      8.31523309	     32.05735377	    -12.35950192	     -4.20020078	    -58.40432675	      2.68972060	      4.71587774	     -0.42441861	      8.47144923	      5.81558073	     -7.38253888
      3.87500000	     -8.29695355	     -8.26957620	      2.23076737	     -1.28163881	     -0.02070073	     -0.31662383	     11.58456948	     12.92546378	      2.84846418	    -18.27062818	      6.01396578	     -2.93327549	      8.08472494	     32.50516360	    -12.04264175	     -4.42241533	    -57.11475972	      3.27984136	      4.83488484	     -0.97460163	      8.35612618	      5.66199439	     -7.19783700
      3.88000000	     -8.25820501	     -8.07105612	      2.20114279	     -1.27556815	     -0.01997049	     -0.31663121	     10.77813103	     12.74384237	      3.08995532	    -17.71306218	      5.97077604	     -2.99129750	      7.87325894	     32.96465041	    -11.72240860	     -4.64289269	    -55.75222011	      3.83293733	      4.94749093	     -1.57207421	      8.28599204	      5.50801145	     -7.02738289
      3.88500000	     -8.22023011	     -7.88957065	      2.15730357	     -1.26951232	     -0.01932660	     -0.31665796	      9.98746322	     12.57732484	      3.33320088	    -17.18077197	      5.93521330	     -3.04251052	      7.66573850	     33.39330655	    -11.41561428	     -4.84241004	    -54.33274030	      4.40040184	      5.06699452	     -2.24392635	      8.21527596	      5.37989326	     -6.85606902
      3.89000000	     -8.22780412	     -7.70469107	      2.12423487	     -1.26344375	     -0.01879246	     -0.31670287	      9.26949666	     12.39623020	      3.48862245	    -16.68204808	      5.89945834	     -3.09167989	      7.48249307	     33.84414551	    -11.10848774	     -5.07002083	    -52.84204312	      4.88761189	      5.17556676	     -2.81315536	      8.20097942	      5.23837185	     -6.70031379
      3.89500000	     -8.19048622	     -7.53599932	      2.07958179	     -1.25744023	     -0.01828349	     -0.31682490	      8.51265627	     12.23047758	      3.74543910	    -16.20507553	      5.86002578	     -3.12790677	      7.26669665	     34.21383423	    -10.80272357	     -5.24847051	    -51.30292144	      5.45514434	      5.35237489	     -3.56099790	      8.12251667	      5.14175921	     -6.49687909
      3.90000000	     -8.31732565	     -7.41373834	      2.07286229	     -1.25145451	     -0.01807035	     -0.31695187	      7.99078561	     12.09370380	      3.78865800	    -15.80100131	      5.84890956	     -3.10762532	      7.17813959	     34.76663478	    -10.51394271	     -5.34493146	    -49.70006391	      5.83906822	      5.56167409	     -3.75296516	      8.23999404	      5.06161580	     -6.42030254
      3.90500000	     -8.21565704	     -7.19155316	      1.96195214	     -1.24544901	     -0.01753750	     -0.31704448	      7.17749726	     11.87744775	      4.10619743	    -15.36127333	      5.80999038	     -3.16201731	      6.93724398	     34.95329480	    -10.19760530	     -5.62046648	    -48.00800779	      6.35838152	      5.76280814	     -4.61809921	      8.07816057	      4.93089676	     -6.10377660
      3.91000000	     -8.21958563	     -7.03045264	      1.89882138	     -1.23943240	     -0.01725966	     -0.31717168	      6.51522620	     11.71275900	      4.29571804	    -14.97169409	      5.80237605	     -3.19938106	      6.68191973	     35.26993821	     -9.91329882	     -5.80593487	    -46.32203930	      6.98912152	      6.20111473	     -5.56682261	      8.05044561	      4.84039481	     -5.91563063
      3.91500000	     -8.27660602	     -6.89331253	      1.84417875	     -1.23349256	     -0.01709148	     -0.31734533	      5.94819893	     11.55974274	      4.42402381	    -14.63324751	      5.79471871	     -3.15131381	      6.49603827	     35.62912239	     -9.63057920	     -5.92097907	    -44.58326907	      7.51517613	      6.69663438	     -6.33058595	      8.07423364	      4.77554005	     -5.75641267
      3.92000000	     -8.37449673	     -6.73880187	      1.77810846	     -1.22749334	     -0.01701912	     -0.31751020	      5.43304215	     11.38412150	      4.49890775	    -14.30720619	      5.79843042	     -3.10205822	      6.41976320	     35.98127532	     -9.34381790	     -6.08723102	    -42.74979590	      7.86695618	      7.16095122	     -6.62443857	      8.15506967	      4.69191243	     -5.58243801
